<svg xmlns="http://www.w3.org/2000/svg" viewBox="0 0 100 100" width="100" height="100" role="img" aria-label="Foguito">
  <!-- Foguito · app-icon maskable (A · ojo-lente): cuadrado gradiente + flama knockout blanca + ojo wine.
       Escala mejor a chico. Exportar a PNG 192/512 desde este master. -->
  <defs>
    <linearGradient id="sq" x1="0" y1="0" x2="1" y2="1">
      <stop offset="0" stop-color="#FF5330"/>
      <stop offset="1" stop-color="#FF2E7E"/>
    </linearGradient>
  </defs>
  <rect width="100" height="100" rx="24" fill="url(#sq)"/>
  <g transform="translate(21,12) scale(0.58)">
    <path d="M50 6 C 60 30, 88 44, 88 78 A 38 42 0 1 1 12 78 C 12 44, 40 30, 50 6 Z" fill="#FFFFFF"/>
    <path d="M28 82 Q50 68 72 82 Q50 96 28 82 Z" fill="#3A0E26"/>
    <path d="M50 76 C 52.5 80.5, 57.5 82, 57.5 85.5 A 7.5 7.5 0 1 1 42.5 85.5 C 42.5 82, 47.5 80.5, 50 76 Z" fill="#FFF3E9"/>
  </g>
</svg>
