<svg xmlns="http://www.w3.org/2000/svg" viewBox="0 0 100 130" width="100" height="130" role="img" aria-label="NihilVision">
  <!-- NihilVision (matriz) · ojo vertical en gota, line-art, glitch ember/magenta (aberración cromática).
       Vive sobre void #0E0A11. La capa cream se ve solo en fondo oscuro. -->
  <g fill="none" stroke-width="4.5" stroke-linejoin="round">
    <g stroke="#FF5330" transform="translate(-1.6,1)">
      <path d="M50 8 C 58 36, 82 50, 82 80 A 32 36 0 1 1 18 80 C 18 50, 42 36, 50 8 Z"/>
      <path d="M50 48 Q64 80 50 108 Q36 80 50 48 Z"/>
      <circle cx="50" cy="80" r="9.5"/>
    </g>
    <g stroke="#FF2E7E" transform="translate(1.6,-1)">
      <path d="M50 8 C 58 36, 82 50, 82 80 A 32 36 0 1 1 18 80 C 18 50, 42 36, 50 8 Z"/>
      <path d="M50 48 Q64 80 50 108 Q36 80 50 48 Z"/>
      <circle cx="50" cy="80" r="9.5"/>
    </g>
    <g stroke="#FFF3E9">
      <path d="M50 8 C 58 36, 82 50, 82 80 A 32 36 0 1 1 18 80 C 18 50, 42 36, 50 8 Z"/>
      <path d="M50 48 Q64 80 50 108 Q36 80 50 48 Z"/>
      <circle cx="50" cy="80" r="9.5"/>
    </g>
  </g>
</svg>
